<?xml version="1.0" standalone="no"?>
<!DOCTYPE svg PUBLIC "-//W3C//DTD SVG 20010904//EN"
 "http://www.w3.org/TR/2001/REC-SVG-20010904/DTD/svg10.dtd">
<svg version="1.0" xmlns="http://www.w3.org/2000/svg"
 width="500.000000pt" height="500.000000pt" viewBox="0 0 500.000000 500.000000"
 preserveAspectRatio="xMidYMid meet">
<metadata>
Created by potrace 1.14, written by Peter Selinger 2001-2017
</metadata>
<g transform="translate(0.000000,500.000000) scale(0.100000,-0.100000)"
fill="#000000" stroke="none">
<path d="M0 2500 l0 -2500 2500 0 2500 0 0 2500 0 2500 -2500 0 -2500 0 0
-2500z m2625 2005 c232 -61 384 -290 353 -532 -16 -126 -94 -255 -195 -324
l-43 -30 0 -274 0 -274 553 -3 c545 -3 553 -4 622 -27 251 -82 433 -272 496
-516 15 -59 22 -125 26 -251 l6 -172 101 -4 c83 -4 112 -10 163 -33 76 -33
143 -102 181 -183 23 -49 27 -70 27 -147 0 -77 -4 -98 -26 -145 -69 -144 -201
-220 -383 -220 l-63 0 -6 -177 c-4 -138 -10 -195 -27 -251 -73 -257 -267 -446
-524 -512 -78 -20 -107 -20 -1386 -20 -1275 0 -1309 0 -1386 20 -261 66 -458
264 -524 525 -14 56 -22 130 -27 248 l-6 167 -46 0 c-174 1 -289 52 -365 163
-125 182 -59 430 141 529 56 27 77 32 169 36 l104 5 0 101 c1 255 33 398 119
528 102 155 248 263 426 315 53 15 123 17 608 21 l547 3 0 274 0 273 -51 38
c-64 46 -131 136 -159 212 -27 71 -37 197 -21 274 35 165 179 319 341 362 73
19 182 20 255 1z"/>
<path d="M1205 2820 c-161 -34 -282 -129 -354 -280 l-36 -75 0 -720 0 -720 23
-60 c47 -124 157 -235 284 -285 l63 -25 1320 0 1320 0 55 24 c181 80 288 220
311 406 15 119 6 1316 -10 1374 -20 75 -61 149 -111 204 -62 68 -112 103 -197
136 l-68 26 -1280 2 c-704 0 -1298 -3 -1320 -7z m544 -735 c223 -59 333 -315
223 -518 -36 -68 -120 -141 -190 -167 -78 -30 -215 -25 -282 10 -105 54 -169
132 -196 240 -68 267 177 507 445 435z m1745 -18 c77 -35 140 -98 179 -176 29
-59 32 -74 32 -156 0 -79 -3 -97 -29 -150 -36 -73 -104 -143 -171 -175 -74
-35 -209 -40 -287 -10 -76 28 -159 104 -195 178 -25 51 -28 67 -28 162 0 91 3
111 24 150 53 101 131 168 228 196 70 20 180 11 247 -19z"/>
</g>
</svg>
